IKResults
version=1
nRows=7
nColumns=40
inDegrees=yes

Units are S.I. units (second, meters, Newtons, ...)
Angles are in degrees.

endheader
time	pelvis_tilt	pelvis_list	pelvis_rotation	pelvis_tx	pelvis_ty	pelvis_tz	hip_flexion_r	hip_adduction_r	hip_rotation_r	knee_angle_r	knee_angle_r_beta	ankle_angle_r	subtalar_angle_r	mtp_angle_r	hip_flexion_l	hip_adduction_l	hip_rotation_l	knee_angle_l	knee_angle_l_beta	ankle_angle_l	subtalar_angle_l	mtp_angle_l	lumbar_extension	lumbar_bending	lumbar_rotation	arm_flex_r	arm_add_r	arm_rot_r	elbow_flex_r	pro_sup_r	wrist_flex_r	wrist_dev_r	arm_flex_l	arm_add_l	arm_rot_l	elbow_flex_l	pro_sup_l	wrist_flex_l	wrist_dev_l
      0.00000000	     13.85361737	      8.76230269	     -3.20787255	     -1.23450899	      0.93203619	      1.45492640	    -28.36701984	    -10.74481708	    -10.54768902	    -25.60958203	     -0.44697153	      6.30204607	    -13.25534878	      2.33266416	     -0.72070348	     -6.65727766	     26.46599254	    -11.73927771	     -0.20488905	     -3.45036507	     -9.27478311	     -7.63947013	    -22.89946641	    -11.07395669	      4.43097824	      3.96580380	    -12.47557350	     -3.24463858	     23.71753969	     89.95437384	      0.00000000	      0.00000000	     -7.71483273	      7.99463981	     23.54306452	     12.82201858	     89.95437384	      0.00000000	      0.00000000
      0.01000000	     14.02708834	      8.76184460	     -3.15684798	     -1.22510050	      0.93426930	      1.45269927	    -28.29433027	    -10.93724614	    -10.32129476	    -26.83353168	     -0.46833348	      4.18165997	    -13.89588452	      2.99804767	     -1.70869926	     -6.91739794	     25.74426673	    -11.50588753	     -0.20081562	     -2.99522430	     -9.28486637	     -7.99863932	    -22.82717993	    -11.00618663	      4.16173884	      3.66647838	    -12.37581093	     -3.47799122	     23.71492458	     89.95437384	      0.00000000	      0.00000000	     -7.45056238	      8.03312233	     22.78582856	     12.57792518	     89.95437384	      0.00000000	      0.00000000
      0.02000000	     14.19558422	      8.57600154	     -3.14133272	     -1.21588109	      0.93664888	      1.45057721	    -28.06819539	    -10.94853233	     -9.90351670	    -28.21983314	     -0.49252900	      1.99045183	    -14.59922395	      4.62447629	     -2.77238951	     -7.05403748	     24.59033982	    -11.11118980	     -0.19392685	     -2.20809750	     -8.36008355	     -8.63698511	    -22.76401925	    -10.74532525	      4.05390007	      3.35725175	    -12.34740812	     -3.45376464	     23.71656368	     89.95437384	      0.00000000	      0.00000000	     -7.32773355	      8.10482141	     21.08088996	     12.76838911	     89.95437384	      0.00000000	      0.00000000
      0.03000000	     14.25907621	      8.34982590	     -2.96377982	     -1.20643337	      0.93874065	      1.44802435	    -27.58481522	    -11.05000886	    -10.13476785	    -29.94520606	     -0.52264244	     -0.06638338	    -14.47932057	      4.99481100	     -3.54686864	     -6.97238925	     24.15816936	    -11.20775810	     -0.19561228	     -1.48351090	     -8.46263124	     -8.65348181	    -22.59308206	    -10.37002295	      3.81567589	      3.03586280	    -12.33331447	     -3.38590578	     23.63831125	     89.95437384	      0.00000000	      0.00000000	     -7.15104660	      8.05266102	     20.64592696	     12.94486444	     89.95437384	      0.00000000	      0.00000000
      0.04000000	     14.34637260	      8.08826298	     -2.75532101	     -1.19711307	      0.94087359	      1.44552396	    -27.11083540	    -10.89849780	     -9.73534794	    -31.52017798	     -0.55013089	     -2.49368394	    -15.75741301	      8.47061746	     -4.56244264	     -7.00602081	     23.07980047	    -10.74152086	     -0.18747491	     -0.72563339	     -7.68062549	     -9.53880106	    -22.49108468	     -9.94349851	      3.58012140	      2.62945578	    -12.37863561	     -3.20976821	     23.75820126	     89.95437384	      0.00000000	      0.00000000	     -6.94180986	      8.14653745	     18.78950551	     13.28793203	     89.95437384	      0.00000000	      0.00000000
      0.05000000	     14.29022089	      7.85073272	     -2.66593382	     -1.18799820	      0.94243038	      1.44292133	    -26.16700632	    -11.11677280	     -9.83720233	    -33.60301487	     -0.58648325	     -4.44479967	    -15.59181016	      9.01812205	     -5.21314342	     -6.94914600	     22.72227361	    -10.68221022	     -0.18643974	     -0.15232199	     -7.90952391	     -9.58431088	    -22.25076499	     -9.55631928	      3.40388274	      2.29527474	    -12.43624552	     -3.02088920	     23.81520650	     89.95437384	      0.00000000	      0.00000000	     -6.73739662	      8.06705272	     18.20110591	     13.66134130	     89.95437384	      0.00000000	      0.00000000
      0.06000000	     14.34644768	      7.51918767	     -2.52590451	     -1.17875237	      0.94394105	      1.44050629	    -25.27270565	    -11.04380135	     -9.51722847	    -35.90368180	     -0.62663746	     -5.69104069	    -16.07164054	     16.93016935	     -6.02841074	     -6.83026908	     22.23966272	    -10.47487255	     -0.18282101	      0.22930230	     -7.41091714	    -11.70411436	    -22.11859449	     -9.08283562	      3.29413148	      1.88540095	    -12.48523900	     -2.95374077	     23.88543984	     89.95437384	      0.00000000	      0.00000000	     -6.77526730	      8.19137633	     16.05872694	     14.63585675	     89.95437384	      0.00000000	      0.00000000
